<mxfile host="app.diagrams.net" agent="Mozilla/5.0 (Windows NT 10.0; Win64; x64) AppleWebKit/537.36 (KHTML, like Gecko) Chrome/129.0.0.0 Safari/537.36" version="24.7.17">
  <diagram name="Página-1" id="PDXLXjeytI1MxuRXdvvv">
    <mxGraphModel grid="1" page="1" gridSize="10" guides="1" tooltips="1" connect="1" arrows="1" fold="1" pageScale="1" pageWidth="827" pageHeight="1169" math="0" shadow="0">
      <root>
        <mxCell id="0" />
        <mxCell id="1" parent="0" />
        <mxCell id="rsIepovNp7uCtOtdQUVI-1" style="edgeStyle=orthogonalEdgeStyle;rounded=0;orthogonalLoop=1;jettySize=auto;html=1;exitX=1;exitY=0.25;exitDx=0;exitDy=0;entryX=0;entryY=0.5;entryDx=0;entryDy=0;endArrow=none;endFill=0;" edge="1" parent="1" source="Ug2BKwhUfocg0SZmVi5e-1" target="Ug2BKwhUfocg0SZmVi5e-54">
          <mxGeometry relative="1" as="geometry">
            <mxPoint x="455" y="200" as="targetPoint" />
            <Array as="points">
              <mxPoint x="370" y="200" />
              <mxPoint x="370" y="200" />
            </Array>
          </mxGeometry>
        </mxCell>
        <mxCell id="rsIepovNp7uCtOtdQUVI-3" value="1:1" style="edgeLabel;html=1;align=center;verticalAlign=middle;resizable=0;points=[];" connectable="0" vertex="1" parent="rsIepovNp7uCtOtdQUVI-1">
          <mxGeometry x="-0.8364" y="-1" relative="1" as="geometry">
            <mxPoint x="-6" y="-1" as="offset" />
          </mxGeometry>
        </mxCell>
        <mxCell id="Ug2BKwhUfocg0SZmVi5e-1" value="Medicamento" style="rounded=0;whiteSpace=wrap;html=1;fillColor=#e1d5e7;strokeColor=#9673a6;" vertex="1" parent="1">
          <mxGeometry x="125" y="190" width="110" height="40" as="geometry" />
        </mxCell>
        <mxCell id="Ug2BKwhUfocg0SZmVi5e-4" style="rounded=0;orthogonalLoop=1;jettySize=auto;html=1;exitX=0.5;exitY=1;exitDx=0;exitDy=0;entryX=0.5;entryY=0;entryDx=0;entryDy=0;edgeStyle=orthogonalEdgeStyle;strokeColor=#000000;endArrow=none;endFill=0;" edge="1" parent="1" source="Ug2BKwhUfocg0SZmVi5e-2" target="Ug2BKwhUfocg0SZmVi5e-1">
          <mxGeometry relative="1" as="geometry" />
        </mxCell>
        <mxCell id="Ug2BKwhUfocg0SZmVi5e-2" value="" style="ellipse;whiteSpace=wrap;html=1;aspect=fixed;strokeColor=#660066;fillColor=#4C0099;" vertex="1" parent="1">
          <mxGeometry x="-110" y="55" width="60" height="60" as="geometry" />
        </mxCell>
        <mxCell id="Ug2BKwhUfocg0SZmVi5e-5" value="Código" style="text;html=1;align=center;verticalAlign=middle;whiteSpace=wrap;rounded=0;" vertex="1" parent="1">
          <mxGeometry x="-115" y="25" width="70" height="40" as="geometry" />
        </mxCell>
        <mxCell id="Ug2BKwhUfocg0SZmVi5e-6" value="Tipo" style="text;html=1;align=center;verticalAlign=middle;resizable=0;points=[];autosize=1;strokeColor=none;fillColor=none;" vertex="1" parent="1">
          <mxGeometry x="-25" y="30" width="50" height="30" as="geometry" />
        </mxCell>
        <mxCell id="Ug2BKwhUfocg0SZmVi5e-7" value="Unidades&amp;nbsp;&lt;div&gt;en&amp;nbsp;&lt;div&gt;stock&lt;/div&gt;&lt;/div&gt;" style="text;html=1;align=center;verticalAlign=middle;resizable=0;points=[];autosize=1;strokeColor=none;fillColor=none;" vertex="1" parent="1">
          <mxGeometry x="140" width="80" height="60" as="geometry" />
        </mxCell>
        <mxCell id="Ug2BKwhUfocg0SZmVi5e-8" value="Unidades&amp;nbsp;&lt;div&gt;vendidas&lt;/div&gt;" style="text;html=1;align=center;verticalAlign=middle;resizable=0;points=[];autosize=1;strokeColor=none;fillColor=none;" vertex="1" parent="1">
          <mxGeometry x="230" y="20" width="80" height="40" as="geometry" />
        </mxCell>
        <mxCell id="Ug2BKwhUfocg0SZmVi5e-9" value="Precio" style="text;html=1;align=center;verticalAlign=middle;resizable=0;points=[];autosize=1;strokeColor=none;fillColor=none;" vertex="1" parent="1">
          <mxGeometry x="65" y="30" width="60" height="30" as="geometry" />
        </mxCell>
        <mxCell id="Ug2BKwhUfocg0SZmVi5e-18" style="edgeStyle=orthogonalEdgeStyle;rounded=0;orthogonalLoop=1;jettySize=auto;html=1;exitX=0.5;exitY=1;exitDx=0;exitDy=0;entryX=0.5;entryY=0;entryDx=0;entryDy=0;strokeColor=#000000;endArrow=none;endFill=0;" edge="1" parent="1" source="Ug2BKwhUfocg0SZmVi5e-10" target="Ug2BKwhUfocg0SZmVi5e-1">
          <mxGeometry relative="1" as="geometry" />
        </mxCell>
        <mxCell id="Ug2BKwhUfocg0SZmVi5e-10" value="" style="ellipse;whiteSpace=wrap;html=1;aspect=fixed;fillColor=#B266FF;strokeColor=#4C0099;gradientColor=none;" vertex="1" parent="1">
          <mxGeometry x="-30" y="55" width="60" height="60" as="geometry" />
        </mxCell>
        <mxCell id="Ug2BKwhUfocg0SZmVi5e-14" style="edgeStyle=orthogonalEdgeStyle;rounded=0;orthogonalLoop=1;jettySize=auto;html=1;exitX=0.5;exitY=1;exitDx=0;exitDy=0;entryX=0.5;entryY=0;entryDx=0;entryDy=0;strokeColor=#000000;endArrow=none;endFill=0;" edge="1" parent="1" source="Ug2BKwhUfocg0SZmVi5e-11" target="Ug2BKwhUfocg0SZmVi5e-1">
          <mxGeometry relative="1" as="geometry" />
        </mxCell>
        <mxCell id="Ug2BKwhUfocg0SZmVi5e-11" value="" style="ellipse;whiteSpace=wrap;html=1;aspect=fixed;fillColor=#B266FF;strokeColor=#4C0099;dashed=1;" vertex="1" parent="1">
          <mxGeometry x="240" y="55" width="60" height="60" as="geometry" />
        </mxCell>
        <mxCell id="Ug2BKwhUfocg0SZmVi5e-17" style="edgeStyle=orthogonalEdgeStyle;rounded=0;orthogonalLoop=1;jettySize=auto;html=1;exitX=0.5;exitY=1;exitDx=0;exitDy=0;entryX=0.5;entryY=0;entryDx=0;entryDy=0;strokeColor=#000000;endArrow=none;endFill=0;" edge="1" parent="1" source="Ug2BKwhUfocg0SZmVi5e-12" target="Ug2BKwhUfocg0SZmVi5e-1">
          <mxGeometry relative="1" as="geometry" />
        </mxCell>
        <mxCell id="Ug2BKwhUfocg0SZmVi5e-12" value="" style="ellipse;whiteSpace=wrap;html=1;aspect=fixed;fillColor=#B266FF;strokeColor=#4C0099;shadow=0;" vertex="1" parent="1">
          <mxGeometry x="65" y="55" width="60" height="60" as="geometry" />
        </mxCell>
        <mxCell id="Ug2BKwhUfocg0SZmVi5e-16" style="edgeStyle=orthogonalEdgeStyle;rounded=0;orthogonalLoop=1;jettySize=auto;html=1;exitX=0.5;exitY=1;exitDx=0;exitDy=0;entryX=0.5;entryY=0;entryDx=0;entryDy=0;strokeColor=#000000;endArrow=none;endFill=0;" edge="1" parent="1" source="Ug2BKwhUfocg0SZmVi5e-13" target="Ug2BKwhUfocg0SZmVi5e-1">
          <mxGeometry relative="1" as="geometry" />
        </mxCell>
        <mxCell id="Ug2BKwhUfocg0SZmVi5e-13" value="" style="ellipse;whiteSpace=wrap;html=1;aspect=fixed;fillColor=#B266FF;strokeColor=#4C0099;dashed=1;" vertex="1" parent="1">
          <mxGeometry x="150" y="55" width="60" height="60" as="geometry" />
        </mxCell>
        <mxCell id="rsIepovNp7uCtOtdQUVI-2" style="edgeStyle=orthogonalEdgeStyle;rounded=0;orthogonalLoop=1;jettySize=auto;html=1;exitX=0;exitY=0.5;exitDx=0;exitDy=0;entryX=1;entryY=0.5;entryDx=0;entryDy=0;endArrow=none;endFill=0;" edge="1" parent="1" source="Ug2BKwhUfocg0SZmVi5e-19" target="Ug2BKwhUfocg0SZmVi5e-54">
          <mxGeometry relative="1" as="geometry" />
        </mxCell>
        <mxCell id="rsIepovNp7uCtOtdQUVI-5" value="n:1" style="edgeLabel;html=1;align=center;verticalAlign=middle;resizable=0;points=[];" connectable="0" vertex="1" parent="rsIepovNp7uCtOtdQUVI-2">
          <mxGeometry x="-0.8545" y="-1" relative="1" as="geometry">
            <mxPoint as="offset" />
          </mxGeometry>
        </mxCell>
        <mxCell id="Ug2BKwhUfocg0SZmVi5e-19" value="Laboratorio" style="rounded=0;whiteSpace=wrap;html=1;fillColor=#e1d5e7;strokeColor=#9673a6;" vertex="1" parent="1">
          <mxGeometry x="800" y="180" width="110" height="40" as="geometry" />
        </mxCell>
        <mxCell id="Ug2BKwhUfocg0SZmVi5e-20" value="Código" style="text;html=1;align=center;verticalAlign=middle;resizable=0;points=[];autosize=1;strokeColor=none;fillColor=none;" vertex="1" parent="1">
          <mxGeometry x="570" y="30" width="60" height="30" as="geometry" />
        </mxCell>
        <mxCell id="Ug2BKwhUfocg0SZmVi5e-21" value="Teléfono" style="text;html=1;align=center;verticalAlign=middle;resizable=0;points=[];autosize=1;strokeColor=none;fillColor=none;" vertex="1" parent="1">
          <mxGeometry x="740" y="30" width="70" height="30" as="geometry" />
        </mxCell>
        <mxCell id="Ug2BKwhUfocg0SZmVi5e-22" value="Nombre" style="text;html=1;align=center;verticalAlign=middle;resizable=0;points=[];autosize=1;strokeColor=none;fillColor=none;" vertex="1" parent="1">
          <mxGeometry x="655" y="30" width="70" height="30" as="geometry" />
        </mxCell>
        <mxCell id="Ug2BKwhUfocg0SZmVi5e-23" value="Dirección&amp;nbsp;&lt;div&gt;postal&lt;/div&gt;" style="text;html=1;align=center;verticalAlign=middle;resizable=0;points=[];autosize=1;strokeColor=none;fillColor=none;" vertex="1" parent="1">
          <mxGeometry x="860" y="40" width="80" height="40" as="geometry" />
        </mxCell>
        <mxCell id="Ug2BKwhUfocg0SZmVi5e-24" value="Fax" style="text;html=1;align=center;verticalAlign=middle;resizable=0;points=[];autosize=1;strokeColor=none;fillColor=none;" vertex="1" parent="1">
          <mxGeometry x="940" y="30" width="40" height="30" as="geometry" />
        </mxCell>
        <mxCell id="Ug2BKwhUfocg0SZmVi5e-25" value="Nombre persona&amp;nbsp;&lt;div&gt;de contacto&lt;/div&gt;" style="text;html=1;align=center;verticalAlign=middle;resizable=0;points=[];autosize=1;strokeColor=none;fillColor=none;" vertex="1" parent="1">
          <mxGeometry x="990" y="20" width="120" height="40" as="geometry" />
        </mxCell>
        <mxCell id="Ug2BKwhUfocg0SZmVi5e-32" style="edgeStyle=orthogonalEdgeStyle;rounded=0;orthogonalLoop=1;jettySize=auto;html=1;exitX=0.5;exitY=1;exitDx=0;exitDy=0;entryX=0.5;entryY=0;entryDx=0;entryDy=0;strokeColor=#000000;endArrow=none;endFill=0;" edge="1" parent="1" source="Ug2BKwhUfocg0SZmVi5e-26" target="Ug2BKwhUfocg0SZmVi5e-19">
          <mxGeometry relative="1" as="geometry" />
        </mxCell>
        <mxCell id="Ug2BKwhUfocg0SZmVi5e-26" value="" style="ellipse;whiteSpace=wrap;html=1;aspect=fixed;strokeColor=#660066;fillColor=#4C0099;" vertex="1" parent="1">
          <mxGeometry x="570" y="55" width="60" height="60" as="geometry" />
        </mxCell>
        <mxCell id="Ug2BKwhUfocg0SZmVi5e-34" style="edgeStyle=orthogonalEdgeStyle;rounded=0;orthogonalLoop=1;jettySize=auto;html=1;exitX=0.5;exitY=1;exitDx=0;exitDy=0;entryX=0.5;entryY=0;entryDx=0;entryDy=0;strokeColor=#000000;endArrow=none;endFill=0;" edge="1" parent="1" source="Ug2BKwhUfocg0SZmVi5e-27" target="Ug2BKwhUfocg0SZmVi5e-19">
          <mxGeometry relative="1" as="geometry" />
        </mxCell>
        <mxCell id="Ug2BKwhUfocg0SZmVi5e-27" value="" style="ellipse;whiteSpace=wrap;html=1;aspect=fixed;fillColor=#B266FF;strokeColor=#4C0099;gradientColor=none;" vertex="1" parent="1">
          <mxGeometry x="660" y="55" width="60" height="60" as="geometry" />
        </mxCell>
        <mxCell id="Ug2BKwhUfocg0SZmVi5e-35" style="edgeStyle=orthogonalEdgeStyle;rounded=0;orthogonalLoop=1;jettySize=auto;html=1;exitX=0.5;exitY=1;exitDx=0;exitDy=0;entryX=0.5;entryY=0;entryDx=0;entryDy=0;strokeColor=#000000;endArrow=none;endFill=0;" edge="1" parent="1" source="Ug2BKwhUfocg0SZmVi5e-28" target="Ug2BKwhUfocg0SZmVi5e-19">
          <mxGeometry relative="1" as="geometry" />
        </mxCell>
        <mxCell id="Ug2BKwhUfocg0SZmVi5e-28" value="" style="ellipse;whiteSpace=wrap;html=1;aspect=fixed;fillColor=#B266FF;strokeColor=#4C0099;gradientColor=none;" vertex="1" parent="1">
          <mxGeometry x="745" y="55" width="60" height="60" as="geometry" />
        </mxCell>
        <mxCell id="Ug2BKwhUfocg0SZmVi5e-36" style="edgeStyle=orthogonalEdgeStyle;rounded=0;orthogonalLoop=1;jettySize=auto;html=1;exitX=0.5;exitY=1;exitDx=0;exitDy=0;entryX=0.5;entryY=0;entryDx=0;entryDy=0;strokeColor=#000000;endArrow=none;endFill=0;" edge="1" parent="1" source="Ug2BKwhUfocg0SZmVi5e-29" target="Ug2BKwhUfocg0SZmVi5e-19">
          <mxGeometry relative="1" as="geometry" />
        </mxCell>
        <mxCell id="Ug2BKwhUfocg0SZmVi5e-29" value="" style="ellipse;whiteSpace=wrap;html=1;aspect=fixed;fillColor=#B266FF;strokeColor=#4C0099;gradientColor=none;" vertex="1" parent="1">
          <mxGeometry x="825" y="55" width="60" height="60" as="geometry" />
        </mxCell>
        <mxCell id="Ug2BKwhUfocg0SZmVi5e-37" style="edgeStyle=orthogonalEdgeStyle;rounded=0;orthogonalLoop=1;jettySize=auto;html=1;exitX=0.5;exitY=1;exitDx=0;exitDy=0;entryX=0.5;entryY=0;entryDx=0;entryDy=0;strokeColor=#000000;endArrow=none;endFill=0;" edge="1" parent="1" source="Ug2BKwhUfocg0SZmVi5e-30" target="Ug2BKwhUfocg0SZmVi5e-19">
          <mxGeometry relative="1" as="geometry" />
        </mxCell>
        <mxCell id="Ug2BKwhUfocg0SZmVi5e-30" value="" style="ellipse;whiteSpace=wrap;html=1;aspect=fixed;fillColor=#B266FF;strokeColor=#4C0099;gradientColor=none;" vertex="1" parent="1">
          <mxGeometry x="930" y="55" width="60" height="60" as="geometry" />
        </mxCell>
        <mxCell id="Ug2BKwhUfocg0SZmVi5e-38" style="edgeStyle=orthogonalEdgeStyle;rounded=0;orthogonalLoop=1;jettySize=auto;html=1;exitX=0.5;exitY=1;exitDx=0;exitDy=0;entryX=0.5;entryY=0;entryDx=0;entryDy=0;strokeColor=#000000;endArrow=none;endFill=0;" edge="1" parent="1" source="Ug2BKwhUfocg0SZmVi5e-31" target="Ug2BKwhUfocg0SZmVi5e-19">
          <mxGeometry relative="1" as="geometry" />
        </mxCell>
        <mxCell id="Ug2BKwhUfocg0SZmVi5e-31" value="" style="ellipse;whiteSpace=wrap;html=1;aspect=fixed;fillColor=#B266FF;strokeColor=#4C0099;gradientColor=none;" vertex="1" parent="1">
          <mxGeometry x="1020" y="55" width="60" height="60" as="geometry" />
        </mxCell>
        <mxCell id="Ug2BKwhUfocg0SZmVi5e-47" style="edgeStyle=orthogonalEdgeStyle;rounded=0;orthogonalLoop=1;jettySize=auto;html=1;exitX=0.5;exitY=1;exitDx=0;exitDy=0;endArrow=none;endFill=0;" edge="1" parent="1" source="Ug2BKwhUfocg0SZmVi5e-39" target="Ug2BKwhUfocg0SZmVi5e-29">
          <mxGeometry relative="1" as="geometry" />
        </mxCell>
        <mxCell id="Ug2BKwhUfocg0SZmVi5e-39" value="" style="ellipse;whiteSpace=wrap;html=1;aspect=fixed;fillColor=#B266FF;strokeColor=#4C0099;gradientColor=none;" vertex="1" parent="1">
          <mxGeometry x="745" y="-75" width="60" height="60" as="geometry" />
        </mxCell>
        <mxCell id="Ug2BKwhUfocg0SZmVi5e-45" style="edgeStyle=orthogonalEdgeStyle;rounded=0;orthogonalLoop=1;jettySize=auto;html=1;exitX=0.5;exitY=1;exitDx=0;exitDy=0;endArrow=none;endFill=0;" edge="1" parent="1" source="Ug2BKwhUfocg0SZmVi5e-40" target="Ug2BKwhUfocg0SZmVi5e-29">
          <mxGeometry relative="1" as="geometry" />
        </mxCell>
        <mxCell id="Ug2BKwhUfocg0SZmVi5e-40" value="" style="ellipse;whiteSpace=wrap;html=1;aspect=fixed;fillColor=#B266FF;strokeColor=#4C0099;gradientColor=none;" vertex="1" parent="1">
          <mxGeometry x="900" y="-75" width="60" height="60" as="geometry" />
        </mxCell>
        <mxCell id="Ug2BKwhUfocg0SZmVi5e-46" style="edgeStyle=orthogonalEdgeStyle;rounded=0;orthogonalLoop=1;jettySize=auto;html=1;exitX=0.5;exitY=1;exitDx=0;exitDy=0;endArrow=none;endFill=0;" edge="1" parent="1" source="Ug2BKwhUfocg0SZmVi5e-41" target="Ug2BKwhUfocg0SZmVi5e-29">
          <mxGeometry relative="1" as="geometry" />
        </mxCell>
        <mxCell id="Ug2BKwhUfocg0SZmVi5e-41" value="" style="ellipse;whiteSpace=wrap;html=1;aspect=fixed;fillColor=#B266FF;strokeColor=#4C0099;gradientColor=none;" vertex="1" parent="1">
          <mxGeometry x="825" y="-75" width="60" height="60" as="geometry" />
        </mxCell>
        <mxCell id="Ug2BKwhUfocg0SZmVi5e-42" value="Calle" style="text;html=1;align=center;verticalAlign=middle;resizable=0;points=[];autosize=1;strokeColor=none;fillColor=none;" vertex="1" parent="1">
          <mxGeometry x="745" y="-100" width="50" height="30" as="geometry" />
        </mxCell>
        <mxCell id="Ug2BKwhUfocg0SZmVi5e-43" value="Nombre" style="text;html=1;align=center;verticalAlign=middle;resizable=0;points=[];autosize=1;strokeColor=none;fillColor=none;" vertex="1" parent="1">
          <mxGeometry x="820" y="-100" width="70" height="30" as="geometry" />
        </mxCell>
        <mxCell id="Ug2BKwhUfocg0SZmVi5e-44" value="Número" style="text;html=1;align=center;verticalAlign=middle;resizable=0;points=[];autosize=1;strokeColor=none;fillColor=none;" vertex="1" parent="1">
          <mxGeometry x="895" y="-100" width="70" height="30" as="geometry" />
        </mxCell>
        <mxCell id="Ug2BKwhUfocg0SZmVi5e-50" style="edgeStyle=orthogonalEdgeStyle;rounded=0;orthogonalLoop=1;jettySize=auto;html=1;exitX=0.5;exitY=1;exitDx=0;exitDy=0;entryX=0.5;entryY=0;entryDx=0;entryDy=0;endArrow=none;endFill=0;" edge="1" parent="1" source="Ug2BKwhUfocg0SZmVi5e-48" target="Ug2BKwhUfocg0SZmVi5e-1">
          <mxGeometry relative="1" as="geometry" />
        </mxCell>
        <mxCell id="Ug2BKwhUfocg0SZmVi5e-48" value="" style="ellipse;whiteSpace=wrap;html=1;aspect=fixed;fillColor=#B266FF;strokeColor=#4C0099;shadow=0;" vertex="1" parent="1">
          <mxGeometry x="315" y="55" width="60" height="60" as="geometry" />
        </mxCell>
        <mxCell id="Ug2BKwhUfocg0SZmVi5e-49" value="Familia" style="text;html=1;align=center;verticalAlign=middle;resizable=0;points=[];autosize=1;strokeColor=none;fillColor=none;" vertex="1" parent="1">
          <mxGeometry x="315" y="30" width="60" height="30" as="geometry" />
        </mxCell>
        <mxCell id="Ug2BKwhUfocg0SZmVi5e-53" style="edgeStyle=orthogonalEdgeStyle;rounded=0;orthogonalLoop=1;jettySize=auto;html=1;exitX=0.5;exitY=1;exitDx=0;exitDy=0;entryX=0.5;entryY=0;entryDx=0;entryDy=0;endArrow=none;endFill=0;" edge="1" parent="1" source="Ug2BKwhUfocg0SZmVi5e-51" target="Ug2BKwhUfocg0SZmVi5e-1">
          <mxGeometry relative="1" as="geometry" />
        </mxCell>
        <mxCell id="Ug2BKwhUfocg0SZmVi5e-51" value="" style="ellipse;whiteSpace=wrap;html=1;aspect=fixed;fillColor=#B266FF;strokeColor=#4C0099;shadow=0;" vertex="1" parent="1">
          <mxGeometry x="395" y="55" width="60" height="60" as="geometry" />
        </mxCell>
        <mxCell id="Ug2BKwhUfocg0SZmVi5e-52" value="Tipo de venta" style="text;html=1;align=center;verticalAlign=middle;resizable=0;points=[];autosize=1;strokeColor=none;fillColor=none;" vertex="1" parent="1">
          <mxGeometry x="375" y="30" width="100" height="30" as="geometry" />
        </mxCell>
        <mxCell id="Ug2BKwhUfocg0SZmVi5e-54" value="Crean" style="rhombus;whiteSpace=wrap;html=1;" vertex="1" parent="1">
          <mxGeometry x="500" y="160" width="80" height="80" as="geometry" />
        </mxCell>
        <mxCell id="ZNKS4ceaVSHD9Ci1XGt0-2" style="edgeStyle=orthogonalEdgeStyle;rounded=0;orthogonalLoop=1;jettySize=auto;html=1;exitX=0.5;exitY=0;exitDx=0;exitDy=0;entryX=1;entryY=0.75;entryDx=0;entryDy=0;endArrow=none;endFill=0;" edge="1" parent="1" source="rsIepovNp7uCtOtdQUVI-7" target="Ug2BKwhUfocg0SZmVi5e-1">
          <mxGeometry relative="1" as="geometry" />
        </mxCell>
        <mxCell id="ZNKS4ceaVSHD9Ci1XGt0-6" value="1:1" style="edgeLabel;html=1;align=center;verticalAlign=middle;resizable=0;points=[];" connectable="0" vertex="1" parent="ZNKS4ceaVSHD9Ci1XGt0-2">
          <mxGeometry x="0.8731" relative="1" as="geometry">
            <mxPoint x="-17" as="offset" />
          </mxGeometry>
        </mxCell>
        <mxCell id="ZNKS4ceaVSHD9Ci1XGt0-7" value="n:1" style="edgeLabel;html=1;align=center;verticalAlign=middle;resizable=0;points=[];" connectable="0" vertex="1" parent="ZNKS4ceaVSHD9Ci1XGt0-2">
          <mxGeometry x="-0.9144" y="-2" relative="1" as="geometry">
            <mxPoint y="12" as="offset" />
          </mxGeometry>
        </mxCell>
        <mxCell id="rsIepovNp7uCtOtdQUVI-7" value="Farmacia" style="rounded=0;whiteSpace=wrap;html=1;fillColor=#e1d5e7;strokeColor=#9673a6;" vertex="1" parent="1">
          <mxGeometry x="440" y="470" width="110" height="40" as="geometry" />
        </mxCell>
        <mxCell id="rsIepovNp7uCtOtdQUVI-8" value="" style="rounded=0;whiteSpace=wrap;html=1;" vertex="1" parent="1">
          <mxGeometry x="990" y="270" width="285" height="130" as="geometry" />
        </mxCell>
        <mxCell id="rsIepovNp7uCtOtdQUVI-9" value="&lt;font style=&quot;font-size: 16px;&quot;&gt;&lt;b&gt;Restricciones Semánticas&lt;/b&gt;&lt;/font&gt;" style="text;html=1;align=center;verticalAlign=middle;whiteSpace=wrap;rounded=0;" vertex="1" parent="1">
          <mxGeometry x="990" y="270" width="205" height="30" as="geometry" />
        </mxCell>
        <mxCell id="rsIepovNp7uCtOtdQUVI-10" value="&lt;div style=&quot;text-align: left;&quot;&gt;&lt;span style=&quot;background-color: initial;&quot;&gt;1. Si la farmacia no dispone en el momento de la compra de algún medicamento, podrá vender otro similar aunque de diferente laboratorio.&lt;/span&gt;&lt;/div&gt;" style="text;html=1;align=center;verticalAlign=middle;whiteSpace=wrap;rounded=0;" vertex="1" parent="1">
          <mxGeometry x="995" y="300" width="280" height="60" as="geometry" />
        </mxCell>
        <mxCell id="rsIepovNp7uCtOtdQUVI-13" value="&lt;div style=&quot;text-align: left;&quot;&gt;&lt;span style=&quot;background-color: initial;&quot;&gt;2. No se debe vender medicamentos sujetos a receta médica a clientes sin dicha receta.&lt;/span&gt;&lt;/div&gt;" style="text;html=1;align=center;verticalAlign=middle;whiteSpace=wrap;rounded=0;" vertex="1" parent="1">
          <mxGeometry x="995" y="360" width="280" height="30" as="geometry" />
        </mxCell>
        <mxCell id="rsIepovNp7uCtOtdQUVI-18" style="edgeStyle=orthogonalEdgeStyle;rounded=0;orthogonalLoop=1;jettySize=auto;html=1;exitX=0.5;exitY=0;exitDx=0;exitDy=0;entryX=0.5;entryY=1;entryDx=0;entryDy=0;endArrow=none;endFill=0;" edge="1" parent="1" source="rsIepovNp7uCtOtdQUVI-14" target="rsIepovNp7uCtOtdQUVI-7">
          <mxGeometry relative="1" as="geometry" />
        </mxCell>
        <mxCell id="rsIepovNp7uCtOtdQUVI-14" value="" style="ellipse;whiteSpace=wrap;html=1;aspect=fixed;strokeColor=#660066;fillColor=#4C0099;" vertex="1" parent="1">
          <mxGeometry x="365" y="555" width="60" height="60" as="geometry" />
        </mxCell>
        <mxCell id="rsIepovNp7uCtOtdQUVI-20" style="edgeStyle=orthogonalEdgeStyle;rounded=0;orthogonalLoop=1;jettySize=auto;html=1;exitX=0.5;exitY=0;exitDx=0;exitDy=0;entryX=0.5;entryY=1;entryDx=0;entryDy=0;endArrow=none;endFill=0;" edge="1" parent="1" source="rsIepovNp7uCtOtdQUVI-15" target="rsIepovNp7uCtOtdQUVI-7">
          <mxGeometry relative="1" as="geometry" />
        </mxCell>
        <mxCell id="rsIepovNp7uCtOtdQUVI-15" value="" style="ellipse;whiteSpace=wrap;html=1;aspect=fixed;fillColor=#B266FF;strokeColor=#4C0099;gradientColor=none;" vertex="1" parent="1">
          <mxGeometry x="465" y="555" width="60" height="60" as="geometry" />
        </mxCell>
        <mxCell id="rsIepovNp7uCtOtdQUVI-21" style="edgeStyle=orthogonalEdgeStyle;rounded=0;orthogonalLoop=1;jettySize=auto;html=1;exitX=0.5;exitY=0;exitDx=0;exitDy=0;entryX=0.5;entryY=1;entryDx=0;entryDy=0;endArrow=none;endFill=0;" edge="1" parent="1" source="rsIepovNp7uCtOtdQUVI-42" target="rsIepovNp7uCtOtdQUVI-7">
          <mxGeometry relative="1" as="geometry">
            <mxPoint x="485" y="555" as="sourcePoint" />
          </mxGeometry>
        </mxCell>
        <mxCell id="rsIepovNp7uCtOtdQUVI-23" value="" style="ellipse;whiteSpace=wrap;html=1;aspect=fixed;fillColor=#B266FF;strokeColor=#4C0099;gradientColor=none;" vertex="1" parent="1">
          <mxGeometry x="751.25" y="61.25" width="47.5" height="47.5" as="geometry" />
        </mxCell>
        <mxCell id="ZNKS4ceaVSHD9Ci1XGt0-12" style="edgeStyle=orthogonalEdgeStyle;rounded=0;orthogonalLoop=1;jettySize=auto;html=1;exitX=0;exitY=0.5;exitDx=0;exitDy=0;entryX=1;entryY=0.5;entryDx=0;entryDy=0;endArrow=none;endFill=0;" edge="1" parent="1" source="rsIepovNp7uCtOtdQUVI-24" target="ZNKS4ceaVSHD9Ci1XGt0-11">
          <mxGeometry relative="1" as="geometry" />
        </mxCell>
        <mxCell id="ZNKS4ceaVSHD9Ci1XGt0-17" value="1:1" style="edgeLabel;html=1;align=center;verticalAlign=middle;resizable=0;points=[];" connectable="0" vertex="1" parent="ZNKS4ceaVSHD9Ci1XGt0-12">
          <mxGeometry x="-0.7269" relative="1" as="geometry">
            <mxPoint x="11" as="offset" />
          </mxGeometry>
        </mxCell>
        <mxCell id="rsIepovNp7uCtOtdQUVI-24" value="Clientes con crédito" style="rounded=0;whiteSpace=wrap;html=1;fillColor=#e1d5e7;strokeColor=#9673a6;" vertex="1" parent="1">
          <mxGeometry x="940" y="470" width="120" height="40" as="geometry" />
        </mxCell>
        <mxCell id="rsIepovNp7uCtOtdQUVI-27" style="edgeStyle=orthogonalEdgeStyle;rounded=0;orthogonalLoop=1;jettySize=auto;html=1;exitX=0.5;exitY=0;exitDx=0;exitDy=0;entryX=0.5;entryY=1;entryDx=0;entryDy=0;endArrow=none;endFill=0;" edge="1" parent="1" source="rsIepovNp7uCtOtdQUVI-26" target="rsIepovNp7uCtOtdQUVI-24">
          <mxGeometry relative="1" as="geometry" />
        </mxCell>
        <mxCell id="rsIepovNp7uCtOtdQUVI-26" value="&lt;span style=&quot;color: rgba(0, 0, 0, 0); font-family: monospace; font-size: 0px; text-align: start; text-wrap: nowrap;&quot;&gt;%3CmxGraphModel%3E%3Croot%3E%3CmxCell%20id%3D%220%22%2F%3E%3CmxCell%20id%3D%221%22%20parent%3D%220%22%2F%3E%3CmxCell%20id%3D%222%22%20value%3D%22%22%20style%3D%22ellipse%3BwhiteSpace%3Dwrap%3Bhtml%3D1%3Baspect%3Dfixed%3BfillColor%3D%23B266FF%3BstrokeColor%3D%234C0099%3BgradientColor%3Dnone%3B%22%20vertex%3D%221%22%20parent%3D%221%22%3E%3CmxGeometry%20x%3D%221080%22%20y%3D%22490%22%20width%3D%2260%22%20height%3D%2260%22%20as%3D%22geometry%22%2F%3E%3C%2FmxCell%3E%3CmxCell%20id%3D%223%22%20value%3D%22Tipo%20de%20cr%C3%A9dito%22%20style%3D%22text%3Bhtml%3D1%3Balign%3Dcenter%3BverticalAlign%3Dmiddle%3Bresizable%3D0%3Bpoints%3D%5B%5D%3Bautosize%3D1%3BstrokeColor%3Dnone%3BfillColor%3Dnone%3B%22%20vertex%3D%221%22%20parent%3D%221%22%3E%3CmxGeometry%20x%3D%221060%22%20y%3D%22550%22%20width%3D%22100%22%20height%3D%2230%22%20as%3D%22geometry%22%2F%3E%3C%2FmxCell%3E%3C%2Froot%3E%3C%2FmxGraphModel%3E&lt;/span&gt;" style="ellipse;whiteSpace=wrap;html=1;aspect=fixed;fillColor=#B266FF;strokeColor=#4C0099;gradientColor=none;" vertex="1" parent="1">
          <mxGeometry x="970" y="555" width="60" height="60" as="geometry" />
        </mxCell>
        <mxCell id="rsIepovNp7uCtOtdQUVI-30" value="Fecha de cobro" style="text;html=1;align=center;verticalAlign=middle;resizable=0;points=[];autosize=1;strokeColor=none;fillColor=none;" vertex="1" parent="1">
          <mxGeometry x="1060" y="615" width="110" height="30" as="geometry" />
        </mxCell>
        <mxCell id="rsIepovNp7uCtOtdQUVI-32" style="edgeStyle=orthogonalEdgeStyle;rounded=0;orthogonalLoop=1;jettySize=auto;html=1;exitX=0.5;exitY=0;exitDx=0;exitDy=0;entryX=0.5;entryY=1;entryDx=0;entryDy=0;endArrow=none;endFill=0;" edge="1" parent="1" source="rsIepovNp7uCtOtdQUVI-31" target="rsIepovNp7uCtOtdQUVI-24">
          <mxGeometry relative="1" as="geometry" />
        </mxCell>
        <mxCell id="rsIepovNp7uCtOtdQUVI-31" value="" style="ellipse;whiteSpace=wrap;html=1;aspect=fixed;fillColor=#B266FF;strokeColor=#4C0099;" vertex="1" parent="1">
          <mxGeometry x="1085" y="555" width="60" height="60" as="geometry" />
        </mxCell>
        <mxCell id="rsIepovNp7uCtOtdQUVI-41" value="Datos bancarios" style="text;html=1;align=center;verticalAlign=middle;resizable=0;points=[];autosize=1;strokeColor=none;fillColor=none;" vertex="1" parent="1">
          <mxGeometry x="945" y="615" width="110" height="30" as="geometry" />
        </mxCell>
        <mxCell id="rsIepovNp7uCtOtdQUVI-42" value="" style="ellipse;whiteSpace=wrap;html=1;aspect=fixed;fillColor=#B266FF;strokeColor=#4C0099;dashed=1;" vertex="1" parent="1">
          <mxGeometry x="575" y="555" width="60" height="60" as="geometry" />
        </mxCell>
        <mxCell id="rsIepovNp7uCtOtdQUVI-43" value="Unidades en stock" style="text;html=1;align=center;verticalAlign=middle;resizable=0;points=[];autosize=1;strokeColor=none;fillColor=none;" vertex="1" parent="1">
          <mxGeometry x="545" y="615" width="120" height="30" as="geometry" />
        </mxCell>
        <mxCell id="rsIepovNp7uCtOtdQUVI-45" value="Fecha de venta" style="text;html=1;align=center;verticalAlign=middle;resizable=0;points=[];autosize=1;strokeColor=none;fillColor=none;" vertex="1" parent="1">
          <mxGeometry x="745" y="310" width="110" height="30" as="geometry" />
        </mxCell>
        <mxCell id="ZNKS4ceaVSHD9Ci1XGt0-4" value="Nombre farmacia" style="text;html=1;align=center;verticalAlign=middle;resizable=0;points=[];autosize=1;strokeColor=none;fillColor=none;" vertex="1" parent="1">
          <mxGeometry x="435" y="615" width="120" height="30" as="geometry" />
        </mxCell>
        <mxCell id="ZNKS4ceaVSHD9Ci1XGt0-5" value="Código farmacia" style="text;html=1;align=center;verticalAlign=middle;resizable=0;points=[];autosize=1;strokeColor=none;fillColor=none;" vertex="1" parent="1">
          <mxGeometry x="340" y="615" width="110" height="30" as="geometry" />
        </mxCell>
        <mxCell id="ZNKS4ceaVSHD9Ci1XGt0-8" value="Crean" style="rhombus;whiteSpace=wrap;html=1;" vertex="1" parent="1">
          <mxGeometry x="455" y="290" width="80" height="80" as="geometry" />
        </mxCell>
        <mxCell id="ZNKS4ceaVSHD9Ci1XGt0-10" value="" style="curved=1;endArrow=none;html=1;rounded=0;endFill=0;" edge="1" parent="1">
          <mxGeometry width="50" height="50" relative="1" as="geometry">
            <mxPoint x="300" y="240" as="sourcePoint" />
            <mxPoint x="300" y="180" as="targetPoint" />
            <Array as="points">
              <mxPoint x="310" y="230" />
              <mxPoint x="310" y="190" />
            </Array>
          </mxGeometry>
        </mxCell>
        <mxCell id="ZNKS4ceaVSHD9Ci1XGt0-13" style="edgeStyle=orthogonalEdgeStyle;rounded=0;orthogonalLoop=1;jettySize=auto;html=1;exitX=0;exitY=0.5;exitDx=0;exitDy=0;entryX=1;entryY=0.5;entryDx=0;entryDy=0;endArrow=none;endFill=0;" edge="1" parent="1" source="ZNKS4ceaVSHD9Ci1XGt0-11" target="rsIepovNp7uCtOtdQUVI-7">
          <mxGeometry relative="1" as="geometry" />
        </mxCell>
        <mxCell id="ZNKS4ceaVSHD9Ci1XGt0-18" value="1:n" style="edgeLabel;html=1;align=center;verticalAlign=middle;resizable=0;points=[];" connectable="0" vertex="1" parent="ZNKS4ceaVSHD9Ci1XGt0-13">
          <mxGeometry x="0.8215" relative="1" as="geometry">
            <mxPoint as="offset" />
          </mxGeometry>
        </mxCell>
        <mxCell id="ZNKS4ceaVSHD9Ci1XGt0-11" value="Compran" style="rhombus;whiteSpace=wrap;html=1;" vertex="1" parent="1">
          <mxGeometry x="705" y="450" width="80" height="80" as="geometry" />
        </mxCell>
        <mxCell id="ZNKS4ceaVSHD9Ci1XGt0-16" style="edgeStyle=orthogonalEdgeStyle;rounded=0;orthogonalLoop=1;jettySize=auto;html=1;exitX=0.5;exitY=0;exitDx=0;exitDy=0;entryX=0.5;entryY=1;entryDx=0;entryDy=0;endArrow=none;endFill=0;" edge="1" parent="1" source="ZNKS4ceaVSHD9Ci1XGt0-14" target="rsIepovNp7uCtOtdQUVI-24">
          <mxGeometry relative="1" as="geometry" />
        </mxCell>
        <mxCell id="ZNKS4ceaVSHD9Ci1XGt0-14" value="" style="ellipse;whiteSpace=wrap;html=1;aspect=fixed;strokeColor=#660066;fillColor=#4C0099;" vertex="1" parent="1">
          <mxGeometry x="870" y="555" width="60" height="60" as="geometry" />
        </mxCell>
        <mxCell id="ZNKS4ceaVSHD9Ci1XGt0-15" value="Número seguridad&amp;nbsp;&lt;div&gt;social&lt;/div&gt;" style="text;html=1;align=center;verticalAlign=middle;resizable=0;points=[];autosize=1;strokeColor=none;fillColor=none;" vertex="1" parent="1">
          <mxGeometry x="835" y="615" width="130" height="40" as="geometry" />
        </mxCell>
        <mxCell id="ZNKS4ceaVSHD9Ci1XGt0-21" value="Unidades vendidas" style="text;html=1;align=center;verticalAlign=middle;resizable=0;points=[];autosize=1;strokeColor=none;fillColor=none;" vertex="1" parent="1">
          <mxGeometry x="635" y="310" width="130" height="30" as="geometry" />
        </mxCell>
        <mxCell id="ZNKS4ceaVSHD9Ci1XGt0-29" style="edgeStyle=orthogonalEdgeStyle;rounded=0;orthogonalLoop=1;jettySize=auto;html=1;exitX=0.5;exitY=1;exitDx=0;exitDy=0;endArrow=none;endFill=0;" edge="1" parent="1" source="ZNKS4ceaVSHD9Ci1XGt0-22">
          <mxGeometry relative="1" as="geometry">
            <mxPoint x="745" y="450" as="targetPoint" />
          </mxGeometry>
        </mxCell>
        <mxCell id="ZNKS4ceaVSHD9Ci1XGt0-22" value="" style="ellipse;whiteSpace=wrap;html=1;aspect=fixed;fillColor=#B266FF;strokeColor=#4C0099;dashed=1;" vertex="1" parent="1">
          <mxGeometry x="672.5" y="340" width="60" height="60" as="geometry" />
        </mxCell>
        <mxCell id="ZNKS4ceaVSHD9Ci1XGt0-28" style="edgeStyle=orthogonalEdgeStyle;rounded=0;orthogonalLoop=1;jettySize=auto;html=1;exitX=0.5;exitY=1;exitDx=0;exitDy=0;entryX=0.5;entryY=0;entryDx=0;entryDy=0;endArrow=none;endFill=0;" edge="1" parent="1" source="ZNKS4ceaVSHD9Ci1XGt0-25" target="ZNKS4ceaVSHD9Ci1XGt0-11">
          <mxGeometry relative="1" as="geometry" />
        </mxCell>
        <mxCell id="ZNKS4ceaVSHD9Ci1XGt0-25" value="&lt;span style=&quot;color: rgba(0, 0, 0, 0); font-family: monospace; font-size: 0px; text-align: start; text-wrap: nowrap;&quot;&gt;%3CmxGraphModel%3E%3Croot%3E%3CmxCell%20id%3D%220%22%2F%3E%3CmxCell%20id%3D%221%22%20parent%3D%220%22%2F%3E%3CmxCell%20id%3D%222%22%20value%3D%22%22%20style%3D%22ellipse%3BwhiteSpace%3Dwrap%3Bhtml%3D1%3Baspect%3Dfixed%3BfillColor%3D%23B266FF%3BstrokeColor%3D%234C0099%3BgradientColor%3Dnone%3B%22%20vertex%3D%221%22%20parent%3D%221%22%3E%3CmxGeometry%20x%3D%221080%22%20y%3D%22490%22%20width%3D%2260%22%20height%3D%2260%22%20as%3D%22geometry%22%2F%3E%3C%2FmxCell%3E%3CmxCell%20id%3D%223%22%20value%3D%22Tipo%20de%20cr%C3%A9dito%22%20style%3D%22text%3Bhtml%3D1%3Balign%3Dcenter%3BverticalAlign%3Dmiddle%3Bresizable%3D0%3Bpoints%3D%5B%5D%3Bautosize%3D1%3BstrokeColor%3Dnone%3BfillColor%3Dnone%3B%22%20vertex%3D%221%22%20parent%3D%221%22%3E%3CmxGeometry%20x%3D%221060%22%20y%3D%22550%22%20width%3D%22100%22%20height%3D%2230%22%20as%3D%22geometry%22%2F%3E%3C%2FmxCell%3E%3C%2Froot%3E%3C%2FmxGraphModel%3E&lt;/span&gt;" style="ellipse;whiteSpace=wrap;html=1;aspect=fixed;fillColor=#B266FF;strokeColor=#4C0099;gradientColor=none;" vertex="1" parent="1">
          <mxGeometry x="770" y="340" width="60" height="60" as="geometry" />
        </mxCell>
        <mxCell id="ZNKS4ceaVSHD9Ci1XGt0-59" style="edgeStyle=orthogonalEdgeStyle;rounded=0;orthogonalLoop=1;jettySize=auto;html=1;exitX=0.5;exitY=0;exitDx=0;exitDy=0;entryX=0.5;entryY=1;entryDx=0;entryDy=0;endArrow=none;endFill=0;" edge="1" parent="1" source="ZNKS4ceaVSHD9Ci1XGt0-43" target="ZNKS4ceaVSHD9Ci1XGt0-58">
          <mxGeometry relative="1" as="geometry" />
        </mxCell>
        <mxCell id="ZNKS4ceaVSHD9Ci1XGt0-62" value="n:1" style="edgeLabel;html=1;align=center;verticalAlign=middle;resizable=0;points=[];" connectable="0" vertex="1" parent="ZNKS4ceaVSHD9Ci1XGt0-59">
          <mxGeometry x="-0.2759" y="-3" relative="1" as="geometry">
            <mxPoint as="offset" />
          </mxGeometry>
        </mxCell>
        <mxCell id="ZNKS4ceaVSHD9Ci1XGt0-43" value="Familia" style="rounded=0;whiteSpace=wrap;html=1;fillColor=#e1d5e7;strokeColor=#9673a6;" vertex="1" parent="1">
          <mxGeometry x="122.5" y="389.1" width="110" height="40" as="geometry" />
        </mxCell>
        <mxCell id="ZNKS4ceaVSHD9Ci1XGt0-44" style="edgeStyle=orthogonalEdgeStyle;rounded=0;orthogonalLoop=1;jettySize=auto;html=1;exitX=0.5;exitY=0;exitDx=0;exitDy=0;entryX=0.5;entryY=1;entryDx=0;entryDy=0;endArrow=none;endFill=0;" edge="1" parent="1" source="ZNKS4ceaVSHD9Ci1XGt0-45" target="ZNKS4ceaVSHD9Ci1XGt0-43">
          <mxGeometry relative="1" as="geometry" />
        </mxCell>
        <mxCell id="ZNKS4ceaVSHD9Ci1XGt0-45" value="" style="ellipse;whiteSpace=wrap;html=1;aspect=fixed;strokeColor=#660066;fillColor=#4C0099;" vertex="1" parent="1">
          <mxGeometry x="77.5" y="468.75" width="60" height="60" as="geometry" />
        </mxCell>
        <mxCell id="ZNKS4ceaVSHD9Ci1XGt0-46" style="edgeStyle=orthogonalEdgeStyle;rounded=0;orthogonalLoop=1;jettySize=auto;html=1;exitX=0.5;exitY=0;exitDx=0;exitDy=0;entryX=0.5;entryY=1;entryDx=0;entryDy=0;endArrow=none;endFill=0;" edge="1" parent="1" source="ZNKS4ceaVSHD9Ci1XGt0-47" target="ZNKS4ceaVSHD9Ci1XGt0-43">
          <mxGeometry relative="1" as="geometry" />
        </mxCell>
        <mxCell id="ZNKS4ceaVSHD9Ci1XGt0-47" value="" style="ellipse;whiteSpace=wrap;html=1;aspect=fixed;fillColor=#B266FF;strokeColor=#4C0099;gradientColor=none;" vertex="1" parent="1">
          <mxGeometry x="207.5" y="468.75" width="60" height="60" as="geometry" />
        </mxCell>
        <mxCell id="ZNKS4ceaVSHD9Ci1XGt0-51" value="Tipo de enfermedad&amp;nbsp;&lt;div&gt;objetivo&lt;/div&gt;" style="text;html=1;align=center;verticalAlign=middle;resizable=0;points=[];autosize=1;strokeColor=none;fillColor=none;" vertex="1" parent="1">
          <mxGeometry x="172.5" y="528.75" width="130" height="40" as="geometry" />
        </mxCell>
        <mxCell id="ZNKS4ceaVSHD9Ci1XGt0-52" value="Nombre familia" style="text;html=1;align=center;verticalAlign=middle;resizable=0;points=[];autosize=1;strokeColor=none;fillColor=none;" vertex="1" parent="1">
          <mxGeometry x="57.5" y="528.75" width="100" height="30" as="geometry" />
        </mxCell>
        <mxCell id="ZNKS4ceaVSHD9Ci1XGt0-54" value="" style="endArrow=none;html=1;rounded=0;" edge="1" parent="1">
          <mxGeometry width="50" height="50" relative="1" as="geometry">
            <mxPoint x="131.5" y="428.75" as="sourcePoint" />
            <mxPoint x="131.5" y="388.75" as="targetPoint" />
          </mxGeometry>
        </mxCell>
        <mxCell id="ZNKS4ceaVSHD9Ci1XGt0-55" value="" style="endArrow=none;html=1;rounded=0;" edge="1" parent="1">
          <mxGeometry width="50" height="50" relative="1" as="geometry">
            <mxPoint x="222.5" y="429.1" as="sourcePoint" />
            <mxPoint x="222.5" y="389.1" as="targetPoint" />
          </mxGeometry>
        </mxCell>
        <mxCell id="ZNKS4ceaVSHD9Ci1XGt0-60" style="edgeStyle=orthogonalEdgeStyle;rounded=0;orthogonalLoop=1;jettySize=auto;html=1;exitX=0.5;exitY=0;exitDx=0;exitDy=0;entryX=0.5;entryY=1;entryDx=0;entryDy=0;endArrow=none;endFill=0;" edge="1" parent="1" source="ZNKS4ceaVSHD9Ci1XGt0-58" target="Ug2BKwhUfocg0SZmVi5e-1">
          <mxGeometry relative="1" as="geometry" />
        </mxCell>
        <mxCell id="ZNKS4ceaVSHD9Ci1XGt0-61" value="1:1" style="edgeLabel;html=1;align=center;verticalAlign=middle;resizable=0;points=[];" connectable="0" vertex="1" parent="ZNKS4ceaVSHD9Ci1XGt0-60">
          <mxGeometry x="0.5333" y="-2" relative="1" as="geometry">
            <mxPoint as="offset" />
          </mxGeometry>
        </mxCell>
        <mxCell id="ZNKS4ceaVSHD9Ci1XGt0-58" value="Pertenece" style="rhombus;whiteSpace=wrap;html=1;" vertex="1" parent="1">
          <mxGeometry x="143.75" y="275" width="72.5" height="70" as="geometry" />
        </mxCell>
      </root>
    </mxGraphModel>
  </diagram>
</mxfile>
